# xmcd CD database file
#
# Track frame offsets:
#	180
#	20127
#	42761
#	64160
#	83121
#	104418
#	125792
#	149918
#	160775
#	182140
#	201334
#	217341
#
# Disc length: 3270 seconds
#
# Revision: 0
# Processed by: cddbd v1.4PL0 Copyright (c) Steve Scherf et al.
# Submitted via: CDex 1.50
#
DISCID=c10cc40c
DTITLE=Various Artist - Salsa
DYEAR=1900
DGENRE=Salsa
TTITLE0=la noche
TTITLE1=cali pachanguero
TTITLE2=cuando aparenzca el amor
TTITLE3=sobredosis
TTITLE4=si supieras
TTITLE5=tu amigo o tu amante
TTITLE6=historia de dos salseros
TTITLE7=bilongo (negra tv)
TTITLE8=para tenerte otra vez
TTITLE9=sopa de caracol
TTITLE10=una novia valluna
TTITLE11=tu amigo o am-remix
EXTD=
EXTT0=
EXTT1=
EXTT2=
EXTT3=
EXTT4=
EXTT5=
EXTT6=
EXTT7=
EXTT8=
EXTT9=
EXTT10=
EXTT11=
PLAYORDER=
